<svg width="30" height="30" viewBox="0 0 30 30" fill="none" xmlns="http://www.w3.org/2000/svg">
<path id="Path" d="M28.3438 0H1.65625C0.74125 0 0 0.74125 0 1.65625V28.345C0 29.2588 0.74125 30 1.65625 30H16.025V18.3825H12.115V13.855H16.025V10.5163C16.025 6.64125 18.3913 4.53125 21.8488 4.53125C23.505 4.53125 24.9275 4.655 25.3425 4.71V8.76L22.945 8.76125C21.065 8.76125 20.7013 9.655 20.7013 10.965V13.8562H25.185L24.6012 18.3837H20.7013V30H28.3463C29.2588 30 30 29.2587 30 28.3438V1.65625C30 0.74125 29.2587 0 28.3438 0Z" fill="#333333"/>
</svg>
