<svg width="227" height="192" viewBox="0 0 227 192" fill="none" xmlns="http://www.w3.org/2000/svg">
<g clip-path="url(#clip0_1_5727)">
<mask id="mask0_1_5727" style="mask-type:alpha" maskUnits="userSpaceOnUse" x="0" y="0" width="227" height="192">
<path d="M48.8322 0.241699L226.689 71.9607L178.435 191.627L0.577955 119.908L48.8322 0.241699Z" fill="white"/>
</mask>
<g mask="url(#mask0_1_5727)">
<path fill-rule="evenodd" clip-rule="evenodd" d="M210.569 99.249C210.544 99.232 210.52 99.2212 210.495 99.2003C210.438 99.151 210.387 99.0954 210.342 99.0348C210.465 99.0589 210.575 99.094 210.588 99.1592C210.594 99.1888 210.585 99.2191 210.569 99.249ZM221.34 84.5425L221.345 84.3525L221.323 84.1643C221.262 83.616 220.875 81.7855 218.51 81.262C218.124 81.1764 217.734 81.0981 217.346 81.0194L217.125 80.9748C216.2 80.7871 212.046 80.0194 210.769 79.8281C210.436 79.7773 209.799 79.6661 209.063 79.5371C206.919 79.1604 205.343 78.891 204.612 78.8476C204.253 78.8265 203.852 78.7736 203.43 78.7176C203.173 78.6835 202.917 78.6499 202.661 78.6206C201.742 78.517 200.941 78.7008 200.143 79.199C199.903 79.35 199.677 79.5214 199.466 79.7112C199.313 79.422 199.138 79.1455 198.941 78.8842C198.098 77.7799 196.517 77.1362 196.45 77.109C195.835 76.8619 194.345 76.419 193.737 76.3262C193.18 76.2407 191.866 76.1245 190.886 76.3006C190.127 76.4373 188.103 77.1811 187.207 77.9373C187.047 78.0719 186.894 78.2135 186.749 78.3604C186.617 78.0098 186.453 77.6719 186.26 77.351C185.4 75.9321 184.063 75.3097 183.129 74.9638C182.85 74.8603 182.427 74.7015 181.928 74.6324C181.797 74.6115 181.305 74.5226 181.136 74.4845C181.045 74.4644 180.909 74.4361 180.53 74.3688C180.24 73.7087 179.939 73.0538 179.626 72.4042L180.36 71.7632L179.556 69.8937C177.241 64.5093 173.614 60.1228 170.098 56.0914C160.06 44.5822 146.687 37.7281 130.362 35.7195C122.497 34.7514 111.591 36.3751 101.187 40.0616C96.2315 41.8177 84.5862 46.5293 81.1385 53.0515C78.0305 55.8529 75.2098 58.9582 72.7183 62.3211C71.9158 61.9459 70.6568 61.7431 69.1217 62.821L69.0767 62.8516C68.7928 63.0475 68.565 63.1902 68.3597 63.2996C67.8874 63.5511 67.5187 63.7107 67.2193 63.7933L67.1421 63.6334C66.0927 61.443 64.8578 59.5523 63.4732 58.014C62.8311 57.3001 62.1677 56.6057 61.4839 55.9318C60.7641 55.2239 59.9389 54.7276 59.2764 54.3289L59.0483 54.1917C58.174 53.6603 57.3129 53.3736 56.5532 53.1195C56.3236 53.0429 56.0937 52.9669 55.8666 52.8823C55.0315 52.5706 54.1534 52.3327 53.1044 52.1346C50.6222 51.6626 48.2053 51.8246 45.9484 52.0637C44.5976 52.2074 43.3749 52.3519 42.0961 52.6756C40.8853 52.9818 39.6991 53.3782 38.5472 53.8616C36.1487 54.8705 34.0228 56.2161 32.0519 57.5067C31.5512 57.8352 30.9698 58.2244 30.4088 58.6956C29.9706 59.0638 29.5942 59.4459 29.2615 59.7836C29.1582 59.8882 29.0553 59.9935 28.9486 60.0995C28.7139 60.3319 28.4679 60.5543 28.2239 60.7768C27.9491 61.0258 27.6745 61.2763 27.4092 61.5362C26.0996 62.8164 24.6383 64.6416 23.0648 66.9624C22.0596 68.4454 21.3608 69.7513 20.6192 71.1338C20.4212 71.5043 20.217 71.8848 19.9995 72.2829C18.8539 74.3743 17.9516 76.5901 17.3102 78.8868C16.9805 80.0749 16.6956 81.3256 16.4629 82.6057C16.4258 82.808 16.3294 83.2674 16.2234 83.7767C16.005 84.8266 15.8571 85.543 15.7981 85.9187C15.5921 87.2236 15.5762 88.4742 15.5777 89.7471C15.5794 91.066 15.6257 92.1434 15.7237 93.1357C15.9957 95.8861 16.7132 98.4069 17.8561 100.627C18.4042 101.692 18.9587 102.622 19.5498 103.47C20.2819 104.521 21.0211 105.541 22.0123 106.472C23.9205 108.264 26.0126 109.409 27.8077 110.293C29.8213 111.284 32.0478 111.937 34.6103 112.294C35.212 112.377 35.8143 112.453 36.4172 112.515C36.74 112.548 37.0404 112.548 38.8767 112.397C38.8745 112.403 38.8726 112.407 38.8695 112.412L38.8403 112.47C38.6719 112.798 38.3213 113.482 38.3351 114.376C38.3567 115.844 39.2573 117.115 40.5762 117.539C40.6875 117.575 40.8273 117.613 40.9895 117.641C41.825 117.788 43.2682 117.701 44.57 115.942L45.0479 115.3C45.6732 114.461 46.7263 113.046 47.2337 112.36C47.8036 111.588 48.2864 110.832 48.7529 110.1C48.942 109.803 49.1322 109.504 49.3308 109.203C49.495 108.952 50.3232 107.862 50.7217 107.337L51.01 106.956C51.2188 107.63 51.4833 108.285 51.8007 108.915C52.171 109.654 52.7591 110.747 53.5828 111.714C54.4785 112.764 55.473 113.533 56.2409 114.086C57.256 114.816 58.1244 115.35 58.9745 115.766C59.3963 115.972 60.3043 116.379 61.0281 116.585L61.4741 116.717C61.9224 116.851 62.3718 116.981 62.8222 117.108C63.7369 120.279 64.8994 123.372 66.299 126.359C68.2405 132.124 71.652 137.62 77.0233 143.638C86.5664 154.332 98.155 160.913 111.562 163.272C114.352 163.762 117.222 164.071 120.167 164.195C137.197 164.914 152.338 159.458 165.172 147.979C167.737 145.685 170.644 143.085 172.009 138.95L172.017 138.924C172.715 138.055 173.389 137.167 174.039 136.261C176.63 136.693 179.876 137.223 180.857 137.341C181.493 137.418 182.113 137.498 182.696 137.617C183.009 137.681 183.322 137.735 183.634 137.788C184.029 137.855 184.398 137.916 184.709 138C185.707 138.269 186.715 138.498 187.731 138.686C188.631 138.87 189.379 138.74 189.965 138.518C190.136 138.705 190.32 138.88 190.524 139.034C191.096 139.459 191.759 139.742 192.461 139.861C194.08 140.147 195.856 139.616 196.966 138.356C197.984 137.199 198.481 135.733 198.299 134.435C198.142 133.316 197.52 132.359 196.548 131.74C196.091 131.45 195.586 131.243 195.057 131.128C196.336 128.935 197.024 127.499 197.103 126.855C197.265 125.509 196.56 124.265 195.404 123.714C194.038 122.92 192.117 122.984 190.643 124.885C189.938 125.625 186.252 128.141 185.178 128.67C184.535 128.989 183.874 129.27 183.199 129.512C182.724 129.681 182.35 129.791 182.064 129.782C181.573 129.767 181.027 129.68 180.365 129.569C180.118 129.527 179.806 129.476 179.485 129.424L179.521 129.336C179.628 129.063 179.803 128.739 179.989 128.397C180.075 128.24 180.16 128.082 180.242 127.924C180.449 127.536 181.856 125.229 182.786 123.704L183.422 122.66C183.445 123.106 183.558 123.542 183.754 123.942C183.96 124.371 184.259 124.748 184.628 125.048C184.997 125.348 185.427 125.562 185.889 125.676C186.871 125.919 187.922 125.694 188.778 125.062C189.704 124.375 190.246 123.446 190.642 122.768C190.713 122.647 190.781 122.528 190.85 122.419C191.129 121.973 191.412 121.531 191.696 121.09C191.879 120.805 192.062 120.522 192.243 120.235C192.471 119.877 192.728 119.51 193.001 119.121C193.575 118.3 194.227 117.369 194.733 116.305L194.754 116.263C195.025 115.697 195.744 114.195 194.956 112.666C194.757 112.276 194.477 111.934 194.136 111.66C193.794 111.386 193.399 111.188 192.976 111.079C192.277 110.898 191.649 110.988 191.145 111.155C191.359 110.866 191.54 110.624 191.671 110.447C191.883 110.165 192.088 109.878 192.293 109.591C192.515 109.28 192.737 108.97 192.969 108.667C193.143 108.441 193.311 108.211 193.481 107.98C193.756 107.602 194.017 107.245 194.271 106.963C194.367 106.854 194.465 106.747 194.56 106.646L194.748 106.675C195.434 106.783 196.122 106.891 196.801 107.016C197.482 107.136 198.153 107.302 198.812 107.512C199.266 107.66 199.508 107.777 199.633 107.85C199.636 107.961 199.636 108.102 199.636 108.216L199.637 108.267C199.637 108.575 199.613 108.802 199.562 108.959C199.491 109.176 199.418 109.391 199.346 109.605C199.139 110.211 198.927 110.836 198.75 111.518L198.706 111.645C198.373 112.587 197.753 114.34 198.86 115.851C199.48 116.698 200.457 117.163 201.539 117.126C203.306 117.066 204.266 115.718 204.626 115.21C204.647 115.183 204.666 115.155 204.684 115.126C205.202 114.525 205.55 113.899 205.822 113.368C206.069 112.887 206.437 112.374 206.828 111.831C206.943 111.67 207.059 111.51 207.172 111.348C207.585 110.763 207.944 110.173 208.293 109.603L208.489 109.283C208.985 108.475 209.603 107.47 209.942 106.258C210.235 105.205 210.194 104.359 209.988 103.689C210.131 103.688 210.275 103.695 210.416 103.684C213.267 103.466 215.58 101.181 215.681 98.467C215.702 97.7986 215.572 97.1342 215.3 96.5238C215.028 95.9135 214.621 95.3728 214.111 94.9425C213.567 94.4846 212.928 94.1541 212.241 93.9749C211.553 93.7958 210.834 93.7725 210.136 93.9069L210.135 93.9064C210.031 93.9273 209.929 93.9523 209.827 93.9815C210.078 93.5858 210.328 93.1987 210.585 92.8283L210.783 92.5407C210.881 92.399 210.977 92.2583 211.076 92.1191C211.261 91.8565 211.442 91.5896 211.624 91.3226C211.878 90.9464 212.119 90.5922 212.362 90.2684C212.811 89.6708 213.203 89.0749 213.582 88.4984C213.716 88.2955 213.846 88.0956 213.977 87.9017C214.062 88.1333 214.175 88.3546 214.314 88.5639C214.546 88.9137 214.846 89.2123 215.198 89.4413C215.549 89.6703 215.943 89.8249 216.356 89.8956C216.924 89.9951 218.784 90.1227 219.882 87.8574L219.89 87.8411C219.934 87.7657 220.001 87.6624 220.076 87.5423C220.844 86.3174 221.317 85.5175 221.339 84.5437L221.34 84.5425Z" fill="#FFFFFE"/>
<path fill-rule="evenodd" clip-rule="evenodd" d="M182.18 110.535C176.418 143.168 145.327 164.974 112.735 159.239C80.144 153.504 58.3951 122.402 64.1582 89.7684C69.9206 57.1355 101.012 35.3302 133.603 41.0651C166.194 46.7994 187.943 77.9021 182.181 110.535" fill="white"/>
</g>
<path fill-rule="evenodd" clip-rule="evenodd" d="M133.561 41.383C130.665 41.0967 127.849 40.5997 125.028 40.585C118.854 40.5521 119.602 39.9316 120.611 45.906C120.634 46.039 120.782 46.1501 120.952 46.3823C125.471 45.9918 130.885 48.1917 133.562 41.3832L133.561 41.383ZM117.299 40.5731L103.094 44.5059C104.255 45.9584 105.041 47.002 105.897 47.9825C106.22 48.3523 106.765 48.89 107.109 48.8226C110.861 48.0889 114.593 47.2496 118.485 46.4053L117.299 40.5731ZM132.705 46.4681C145.606 48.1638 157.058 52.7146 167.19 60.5756C166.161 59.0888 165.078 57.6957 163.828 56.4747C157.396 50.1896 149.746 45.9917 141.208 43.3263C136.942 41.9959 135.794 42.3558 132.705 46.4681ZM83.1498 56.6198C84.8439 47.805 113.398 36.9475 130.177 38.984C145.14 40.8005 158.088 46.879 168.105 58.425C171.586 62.4368 174.968 66.5992 177.072 71.5358L176.333 72.1859C175.676 71.6675 174.927 71.2321 174.373 70.619C163.41 58.4757 149.818 51.307 133.664 49.0046C132.903 48.8964 131.533 49.0406 131.391 49.4192C131.077 50.2621 131.057 51.4968 131.471 52.2648C132.155 53.5289 133.16 54.6838 134.239 55.6479C138.163 59.1547 142.191 62.5431 146.139 66.0228C147.003 66.7839 147.699 67.7357 148.473 68.5996L147.941 69.2815C147.337 68.9823 146.641 68.7916 146.143 68.3674C141.547 64.4545 136.964 60.5261 132.423 56.5495C130.163 54.5721 128.171 52.3964 128.872 48.6885C126.509 48.7248 124.434 48.6393 122.397 48.8827C121.964 48.935 121.306 50.2286 121.369 50.8868C121.74 54.7566 122.312 58.6051 122.77 62.4663C122.863 63.2457 122.761 64.0496 122.748 64.8422L121.945 65.0557C121.626 64.2293 121.161 63.4287 121.012 62.5713C120.363 58.8176 119.758 55.0535 119.238 51.278C119.017 49.6689 118.435 48.8707 116.685 49.2437C115.402 49.5171 114.068 49.5332 112.781 49.7924C111.266 50.0968 109.359 50.1106 108.404 51.0521C107.58 51.8643 107.855 53.8021 107.64 55.242C107.32 57.3929 106.842 59.4381 103.778 60.6378C104.899 57.5181 106.41 55.0105 105.026 51.7749L90.9548 58.2066L90.3403 57.3686C91.0076 56.7217 91.5733 55.8752 92.361 55.462C95.5925 53.7673 98.8916 52.2015 102.168 50.5929C102.779 50.2931 103.399 50.0128 104.016 49.7235C102.136 45.7499 101.102 45.1635 97.6881 47.2233C93.649 49.6594 89.8737 52.5442 86.0206 55.2857C85.1813 55.882 84.4924 56.6928 83.7347 57.4056L83.1496 56.6204L83.1498 56.6198ZM130.767 121.612L135.961 158.606C149.581 155.5 160.415 148.511 169.52 138.438C168.404 141.818 165.929 144.062 163.487 146.249C151.265 157.191 136.921 162.432 120.568 161.748C104.15 161.063 90.4335 154.434 79.5034 142.173C74.3767 136.421 70.0792 130.135 68.376 122.294C75.5041 136.623 85.3915 148.124 100.43 154.64C93.865 141.767 89.6709 135.846 88.802 121.36L89.8431 121.009C90.1315 121.775 90.6067 122.523 90.6807 123.309C91.9068 136.246 95.3869 140.788 101.501 152.133C103.196 155.278 105.425 157.061 109.019 157.862C116.482 159.522 123.921 160.282 131.54 159.389C133.595 159.148 134.267 158.514 133.952 156.332C132.464 146.005 131.132 135.654 129.77 125.307C129.617 124.137 129.623 122.944 129.555 121.762L130.767 121.612Z" fill="black"/>
<path fill-rule="evenodd" clip-rule="evenodd" d="M63.0546 65.7892C63.5622 66.8562 64.0397 67.9599 64.3515 69.099C64.6095 70.039 64.8033 71.0108 64.7577 71.9801C64.7458 72.244 64.7124 73.2899 64.6775 73.5744C64.6288 73.971 64.5661 74.364 64.4895 74.7556C64.4069 75.181 64.3269 75.6067 64.251 76.0327C64.1995 76.3224 64.1286 76.7601 64.5232 76.8412C64.9239 76.9242 65.1045 76.3936 65.2662 76.1184C65.5382 75.6574 65.8668 75.2852 66.2031 74.8717C66.5036 74.5021 66.8004 74.1312 67.1009 73.7616C67.8348 72.8583 68.51 71.9452 69.2105 71.0159C69.7899 70.2494 71.6089 67.6955 71.796 67.1592C71.9338 66.7658 72.4315 66.2517 72.0121 65.8738C71.6735 65.5695 71.2843 65.8817 70.9899 66.0831C70.6688 66.3037 70.3436 66.5109 69.9986 66.6926C69.0375 67.2001 68.0443 67.6077 66.9409 67.5686C66.4756 67.5529 65.684 67.3659 65.4779 66.907C65.3045 66.5203 65.117 66.1413 64.9318 65.7597C64.0717 63.9818 63.0093 62.2699 61.6772 60.7994C61.0684 60.1266 60.4397 59.4722 59.7918 58.8371C59.2379 58.2949 58.5108 57.8876 57.8521 57.4883C57.0022 56.9737 56.0486 56.7458 55.1289 56.4028C54.368 56.1189 53.6059 55.9278 52.8104 55.7762C50.7086 55.3755 48.5562 55.5036 46.4398 55.7214C45.2728 55.8417 44.1027 55.9699 42.9629 56.2536C41.8848 56.5219 40.8281 56.8706 39.8017 57.2966C37.6432 58.1942 35.6883 59.4139 33.7378 60.6814C33.2631 60.9904 32.7936 61.3036 32.3582 61.6667C31.8978 62.0504 31.493 62.4892 31.0667 62.909C30.5624 63.4065 30.018 63.8608 29.51 64.354C28.0938 65.7297 26.6244 67.7111 25.5232 69.3308C24.3407 71.0694 23.6088 72.5624 22.5987 74.4074C21.5555 76.3045 20.7359 78.3163 20.1563 80.4023C19.8408 81.5432 19.5813 82.7018 19.3712 83.8672C19.2769 84.3888 18.8123 86.5401 18.7243 87.108C18.5492 88.2297 18.5421 89.3586 18.546 90.4912C18.5502 91.53 18.5826 92.5711 18.6874 93.6052C18.9177 95.8627 19.4984 98.0666 20.5496 100.087C20.9981 100.962 21.5044 101.806 22.0653 102.613C22.7 103.516 23.354 104.42 24.1644 105.177C25.6967 106.61 27.4404 107.618 29.3142 108.539C31.2187 109.475 33.2029 110 35.2994 110.295C35.872 110.376 36.4459 110.447 37.0208 110.509C37.2616 110.534 39.1723 110.373 39.3257 110.363C39.6266 110.344 39.9222 110.272 40.2234 110.268C40.7915 110.253 41.3428 110.46 41.7612 110.844C41.9954 111.054 42.2497 111.864 42.2398 112.128C42.2271 112.466 42.2346 112.776 42.128 113.387C42.0456 113.855 41.8246 114.198 41.7156 114.42C41.6151 114.624 41.4632 114.874 41.467 115.109C41.4749 115.549 41.8732 116.141 42.6775 115.06C42.8553 114.82 44.6316 112.448 45.3394 111.494C46.0757 110.502 46.6694 109.505 47.3485 108.474C47.6696 107.986 49.1058 106.133 49.4715 105.638C49.7283 105.291 50.2441 104.5 50.3855 104.061C50.5152 103.657 49.8849 103.361 49.4051 103.494C48.9661 103.617 48.5474 104.085 48.1887 104.354C47.7194 104.706 47.2195 105.023 46.7229 105.336C45.7505 105.951 44.7308 106.615 43.6303 106.969C42.5084 107.331 41.3523 107.576 40.1803 107.701C38.9815 107.824 37.8836 107.937 36.6818 107.908C35.5144 107.879 34.5263 107.878 33.3876 107.589C33.1281 107.522 32.5227 107.291 32.3078 107.134C32.0898 106.976 31.8947 106.734 31.7227 106.528C31.3776 106.116 31.0976 105.651 30.8376 105.183C30.3997 104.405 30.0053 103.604 29.6563 102.782C28.8134 100.763 28.3296 98.4712 28.2645 96.2879C28.195 93.9777 28.6858 91.6803 29.1342 89.4278C29.5645 87.2718 30.1696 85.1959 31.0157 83.1664C31.8259 81.2227 32.6442 79.5586 33.8212 77.8233C34.5754 76.711 35.4642 75.5388 36.197 74.4124C37.3864 72.5826 38.9321 70.8031 40.3201 69.1147C41.5769 67.5863 42.8843 66.1222 44.3241 64.7602C45.9234 63.2474 47.5474 61.7578 49.3654 60.5037C50.2622 59.8853 51.1854 59.2721 52.2129 58.8929C52.6748 58.7228 53.1566 58.5461 53.6494 58.5005C54.2047 58.4502 54.7557 58.4809 55.3067 58.5598C55.8584 58.6389 56.4562 58.7275 56.9677 58.9546C57.4554 59.1715 57.9348 59.4212 58.3954 59.6883C59.1228 60.1118 59.7658 60.9001 60.3257 61.5254C60.9267 62.1972 61.3968 62.9575 61.8625 63.7236C62.2761 64.4034 62.6846 65.0839 63.0546 65.7892Z" fill="black"/>
<path fill-rule="evenodd" clip-rule="evenodd" d="M80.4952 95.4901C80.1475 96.6695 79.7228 97.7984 79.1721 98.8988C78.4655 100.31 77.717 101.715 76.8493 103.033C76.3513 103.789 75.9561 104.605 75.4619 105.364C74.9831 106.1 74.4345 106.773 73.8496 107.428C72.8112 108.59 71.7168 109.709 70.3446 110.476C68.902 111.281 67.7236 111.359 65.7213 111.299C64.352 111.077 62.7251 110.62 62.0099 109.274C61.1387 107.632 61.2189 105.654 61.5157 103.875C61.7325 102.576 62.0034 101.257 62.5363 100.045C63.2106 98.511 63.9648 97.0472 64.8135 95.6041C66.3907 92.9229 68.1092 90.2735 70.3121 88.0617C71.5114 86.8568 72.9258 85.8903 74.4229 85.0908C75.1649 84.6946 75.9354 84.3135 76.7818 84.2114C77.1438 84.1681 77.5384 84.1407 77.8886 84.261C78.0901 84.3297 78.3635 84.4393 78.5474 84.5448C78.6004 84.5752 79.3389 85.0936 79.4811 85.2373C79.6508 85.4073 79.8098 85.747 79.9207 85.9595C80.124 86.3477 80.2656 86.7132 80.4197 87.1219C80.719 87.9164 80.8138 88.7425 80.912 89.5895C81.0251 90.558 80.9665 91.5562 80.9304 92.5279C80.8968 93.5284 80.7508 94.522 80.4952 95.4901ZM80.9071 109.528C82.2344 108.281 83.3716 106.907 84.4883 105.471C85.4549 104.226 86.3528 102.983 87.0359 101.56C87.4602 100.673 87.9033 99.7601 88.2492 98.8402C88.5789 97.9639 88.7695 97.0468 88.9188 96.1201C89.203 94.361 89.1269 92.5408 88.6107 90.8335C88.3187 89.884 87.9783 88.9501 87.5909 88.0356C87.2503 87.223 86.7987 86.4806 86.2862 85.7617C85.8315 85.1332 85.3122 84.5542 84.7367 84.0344C84.0776 83.4345 83.4446 82.9057 82.6881 82.4371C81.9209 81.9621 81.1116 81.3713 80.2604 81.0649C79.4572 80.7758 78.6036 80.5221 77.7627 80.38C76.8356 80.2174 75.8934 80.1565 74.9528 80.1984C74.5076 80.2172 73.9974 80.2385 73.5507 80.2609C73.0854 80.2848 72.6224 80.3612 72.1664 80.455C70.3262 80.8322 68.4859 81.5643 66.8252 82.4336C66.0025 82.8647 65.066 83.3007 64.3025 83.8294C63.5534 84.3487 62.8611 84.7683 62.0987 85.2738C60.6679 86.2205 59.3688 87.3817 58.2274 88.6636C57.208 89.8082 56.3356 90.831 55.6397 92.0726C55.1215 92.9961 54.8118 93.9313 54.4982 94.8795C54.2024 95.775 53.996 96.6968 53.8676 97.632C53.6388 99.3021 53.466 100.954 53.5014 102.637C53.5219 103.591 53.7359 104.605 53.9114 105.545C54.0662 106.376 54.3694 107.167 54.7484 107.921C55.1374 108.694 55.5894 109.484 56.1536 110.145C56.7849 110.885 57.5175 111.482 58.3049 112.048C59.0388 112.576 59.81 113.081 60.6236 113.478C61.0494 113.687 61.7585 113.989 62.2131 114.119C62.5996 114.231 63.9112 114.629 64.335 114.729C64.8409 114.847 65.484 114.98 65.997 115.061C66.9805 115.214 67.7962 115.192 68.7885 115.067C69.7553 114.945 70.6971 114.713 71.6282 114.43C72.0952 114.289 72.5484 114.112 73.0137 113.964C73.437 113.83 73.8619 113.708 74.2632 113.529C74.5882 113.385 74.9418 113.225 75.2765 113.103C75.7233 112.94 76.113 112.747 76.5391 112.539C77.3944 112.121 78.1955 111.601 78.9697 111.051C79.6349 110.578 80.3097 110.088 80.9071 109.528ZM144.604 96.2807C145.125 96.4555 145.501 96.6615 145.832 97.1082C146.151 97.5383 146.388 98.0003 146.336 98.5543C146.23 99.6816 145.916 100.856 145.585 101.936C145.433 102.433 145.224 102.889 145.031 103.369C144.958 103.549 144.883 103.75 144.984 103.934C145.083 104.115 145.28 104.171 145.466 104.092C145.86 103.926 146.169 103.331 146.4 102.993C146.522 102.814 148.562 99.8068 149.269 98.789C149.651 98.2332 150.052 97.6907 150.472 97.1624C150.719 96.8543 151.026 96.5424 151.161 96.1637C151.332 95.6796 151.129 95.1576 150.719 94.8788C150.031 94.4107 146.264 93.9781 145.263 93.8278C144.38 93.6954 140.601 93.0365 139.589 92.8553C138.538 92.6683 137.498 92.4152 136.439 92.2714C135.343 92.124 134.263 91.9217 133.169 91.7584C132.032 91.5888 130.902 91.3938 129.778 91.1545C129.286 91.0494 128.804 90.9517 128.301 90.9234C128.089 90.9111 127.333 90.905 127.185 91.1033C126.703 91.7429 128.139 91.9119 128.272 92.3331C128.368 92.6363 128.078 93.1764 127.959 93.4599C127.775 93.8999 127.61 94.3493 127.368 94.7625C126.882 95.5936 126.453 96.4677 125.934 97.2781C125.519 97.9238 125.079 98.5633 124.704 99.2342C124.537 99.5324 124.38 99.8356 124.212 100.133C124.223 100.128 124.233 100.123 124.243 100.117C123.813 100.77 123.473 101.479 123.059 102.143C122.584 102.905 122.062 103.636 121.596 104.404C120.956 105.463 120.343 106.538 119.756 107.627C119.381 108.32 119.038 109.026 118.685 109.731C118.332 110.438 117.928 111.119 117.573 111.826C117.093 112.781 114.604 117.225 113.774 118.446C113.371 119.039 113.032 119.666 112.594 120.235C112.037 120.962 111.263 121.322 110.419 121.613C110.152 121.705 109.861 121.755 109.627 121.922C109.292 122.162 109.28 122.56 109.618 122.795C109.921 123.005 110.324 123.064 110.677 123.139C111.024 123.215 111.373 123.284 111.719 123.363C112.601 123.562 120.241 124.621 120.575 124.658C120.769 124.679 120.962 124.73 121.155 124.758C121.402 124.795 121.684 124.838 121.921 124.732C122.287 124.568 122.368 124.136 122.157 123.814C121.974 123.534 121.664 123.374 121.451 123.125C121.17 122.794 121.139 122.37 121.23 121.957C121.305 121.618 129.201 107.725 129.237 107.66C129.255 107.549 129.309 107.528 129.399 107.595C129.601 107.596 129.875 107.748 130.068 107.81C130.247 107.867 130.425 107.924 130.605 107.979C130.895 108.067 131.187 108.149 131.479 108.23C131.957 108.365 132.464 108.466 132.911 108.683C133.239 108.842 133.539 109.102 133.545 109.489C133.55 109.856 133.457 110.218 133.418 110.579C133.383 110.901 133.04 112.253 133.626 112.211C134.008 112.184 134.321 111.562 134.484 111.277C134.666 110.957 134.856 110.642 135.032 110.319C135.866 108.781 136.934 107.391 137.738 105.831C137.854 105.608 138.263 105.004 138.086 104.744C137.872 104.428 137.401 104.954 137.239 105.099C136.595 105.675 135.949 106.304 135.18 106.707C134.818 106.897 134.401 107.054 133.998 107.122C133.635 107.183 133.304 107.074 132.957 106.985C132.573 106.887 132.187 106.789 131.803 106.687C131.219 106.532 130.654 106.343 130.071 106.163C130.473 105.55 132.182 102.398 132.345 102.075C132.846 101.087 133.442 100.137 134.003 99.1822C134.344 98.6012 134.64 97.9942 134.947 97.3952C135.195 96.9106 135.446 96.3639 135.775 95.9323L135.744 95.9574C135.927 95.6831 136.165 95.1777 136.444 95.0091C136.707 94.8505 137.089 94.8131 137.386 94.793C137.772 94.7649 138.16 94.7798 138.542 94.8374C138.922 94.8974 139.299 95.0289 139.677 95.1058C140.501 95.2749 141.319 95.4113 142.131 95.6311C142.953 95.8538 143.785 96.0461 144.604 96.2801L144.604 96.2807ZM116.081 90.1187C116.74 90.3425 117.334 90.8035 117.812 91.3035C118.065 91.5684 118.301 91.8642 118.457 92.1984C118.547 92.3929 118.582 92.498 118.535 92.7138L118.501 92.8679C118.377 93.4492 117.424 95.8038 117.241 96.0625C116.96 96.4582 116.317 97.2011 116.872 97.6467C117.412 98.0811 117.976 97.3453 118.263 96.9551C118.91 96.0759 119.451 95.0948 120.06 94.1877C120.279 93.8618 120.465 93.5141 120.721 93.2179C120.893 93.0189 121.051 92.8069 121.211 92.5976C121.55 92.1513 121.839 91.6686 122.197 91.2377C122.531 90.8347 123.27 90.1687 123.068 89.5774C122.888 89.0569 122.238 88.9448 121.773 88.8723C121.221 88.786 120.668 88.7817 120.119 88.6799C119.557 88.5747 118.99 88.5067 118.425 88.4264C117.654 88.316 116.885 88.2406 116.121 88.0905C115.746 88.0156 115.37 87.9454 114.994 87.87C112.987 87.4657 110.945 87.2142 108.931 86.8414C106.785 86.4443 104.604 86.2116 102.476 85.7112C101.339 85.444 100.089 85.0326 98.9008 85.1361C98.6472 85.1585 98.26 85.2091 98.2954 85.5519C98.3251 85.8367 98.6338 85.9222 98.7818 86.1169C99.0446 86.4609 99.2766 87.0055 99.2473 87.4363C99.215 87.9126 99.1654 88.3785 98.9367 88.8061C98.7364 89.1806 98.5256 89.5501 98.3114 89.9175C97.8775 90.6627 97.459 91.4113 97.0003 92.1423C96.4513 93.0178 95.9537 93.9211 95.3865 94.7866C94.6166 95.9621 93.8175 97.1099 93.1035 98.3205C91.8271 100.487 90.5334 102.637 89.2134 104.777C88.6803 105.641 82.8231 114.858 82.2039 115.494C81.6905 116.022 81.0094 115.998 80.3472 116.18C80.0815 116.253 79.7457 116.35 79.6855 116.668C79.6169 117.033 79.9836 117.164 80.2628 117.235C80.6645 117.334 81.0771 117.366 81.4838 117.434C82.1386 117.543 89.9413 119.13 90.4712 119.244C90.9646 119.351 91.8202 119.608 92.1537 119.489C92.4039 119.399 92.5032 119.132 92.4243 118.88C92.3431 118.62 92.0949 118.477 91.8816 118.336C91.7002 118.216 91.5109 118.101 91.4132 117.899C91.2363 117.537 91.2678 117.076 91.3696 116.699C91.5288 116.113 91.7947 115.525 92.0944 114.997C92.4327 114.402 92.7698 113.808 93.13 113.226C93.4764 112.667 94.351 111.213 94.4005 111.147C94.4796 111.044 94.8704 110.437 95.0021 110.246C95.7368 109.184 96.3985 108.082 97.1022 107C97.5524 106.308 98.9365 104.345 99.1535 104.043C99.5055 103.554 99.8172 102.894 100.371 102.617C100.548 102.529 100.844 102.274 101.025 102.243C101.209 102.211 101.518 102.348 101.698 102.385C101.961 102.437 102.228 102.482 102.493 102.533C102.935 102.618 103.372 102.723 103.814 102.806C103.996 102.84 104.179 102.874 104.36 102.912L104.591 102.961C104.716 102.988 105.131 102.998 105.205 103.089C105.262 103.159 105.227 103.446 105.223 103.553C105.218 103.704 105.194 103.845 105.147 103.988C105.04 104.313 104.849 104.589 104.691 104.888C104.535 105.18 103.909 106.315 104.602 106.313C105.198 106.313 105.854 105.589 106.209 105.175C106.516 104.815 106.808 104.432 107.083 104.045C107.428 103.55 107.756 103.042 108.067 102.525C108.459 101.886 108.917 101.232 109.094 100.492C109.207 100.021 109.183 99.1027 108.511 99.6113C107.974 100.019 107.644 100.666 107.066 101.025L107.117 101.003C106.777 101.193 106.464 101.426 106.134 101.631L106.161 101.622C106.083 101.667 106.007 101.72 105.925 101.758C105.704 101.864 105.41 101.843 105.168 101.832C104.846 101.818 104.514 101.724 104.192 101.671C103.374 101.538 102.306 101.472 101.803 100.723C101.766 100.667 101.73 100.612 101.694 100.556C101.607 100.423 101.571 100.399 101.623 100.254C101.717 99.9927 101.935 99.7298 102.074 99.4892C102.268 99.1518 102.46 98.8153 102.636 98.4686C103.001 97.7528 103.369 97.0408 103.748 96.3325C104.726 94.5065 105.745 92.6761 107.047 91.0577C107.59 90.3848 108.136 89.7217 108.696 89.0638C108.82 88.9182 108.877 88.8166 109.058 88.8037C109.155 88.7963 109.259 88.8131 109.357 88.8158C109.842 88.8303 110.316 88.8484 110.796 88.9261C112.398 89.1873 113.976 89.5489 115.549 89.9584L115.481 89.9344C115.682 89.9945 115.883 90.0532 116.081 90.1193L116.081 90.1187ZM165.472 121.965C165.49 121.826 165.437 121.692 165.283 121.659C165.169 121.635 164.747 121.042 163.973 122.063C163.249 123.018 158.855 125.974 157.575 126.606C156.837 126.971 156.079 127.294 155.304 127.572C154.602 127.822 153.913 128.024 153.158 128.001C152.467 127.98 151.77 127.866 151.09 127.751C150.234 127.608 148.565 127.349 148.593 127.34C148.255 127.203 147.708 127.093 147.405 126.773C147.277 126.638 147.29 126.198 147.29 126.017C147.291 125.222 147.845 124.483 148.127 123.761C148.356 123.174 148.681 122.634 148.972 122.077C149.369 121.318 153.033 115.39 153.275 114.931C153.52 114.466 153.795 114.013 154.06 113.56C154.133 113.436 154.194 113.256 154.318 113.22C154.444 113.183 154.661 113.242 154.801 113.25C155.326 113.281 155.847 113.359 156.367 113.434C156.827 113.5 157.282 113.602 157.729 113.726C157.915 113.778 158.092 113.803 158.217 113.931C158.374 114.092 158.426 114.304 158.411 114.525C158.381 115.007 158.178 115.53 158.026 115.987C157.908 116.342 157.753 116.681 157.633 117.034C157.519 117.367 157.264 117.827 157.432 118.172C157.607 118.53 158.015 118.474 158.287 118.272C158.879 117.833 159.264 117.013 159.648 116.398C160.109 115.662 160.583 114.937 161.048 114.205C161.812 113.003 162.752 111.875 163.365 110.584C163.497 110.307 163.787 109.741 163.627 109.43C163.435 109.058 162.955 109.375 162.729 109.529C161.929 110.069 161.386 110.88 160.672 111.514C160.322 111.825 159.883 112.108 159.423 112.213C158.951 112.319 158.487 112.215 158.023 112.116C157.425 111.988 156.821 111.89 156.22 111.773C155.891 111.71 155.561 111.666 155.229 111.622C156.021 110.48 159.609 105.6 160.603 104.27C161.05 103.675 161.465 103.055 161.919 102.465C162.392 101.851 162.83 101.186 163.347 100.608C163.615 100.308 164.395 99.4569 164.63 99.3328C164.728 99.2799 165.33 99.3019 165.446 99.2887C165.6 99.271 165.832 99.3485 165.984 99.3723C166.804 99.5017 167.627 99.6276 168.443 99.7778C169.242 99.92 170.031 100.115 170.804 100.362C171.814 100.69 172.987 101.208 173.376 102.288C173.546 102.761 173.541 103.254 173.543 103.751C173.544 104.283 173.496 104.807 173.329 105.316C173.064 106.127 172.766 106.922 172.555 107.751C172.456 108.142 171.67 109.842 172.564 109.812C173.072 109.794 173.397 109.118 173.684 108.785C173.992 108.426 174.23 108.009 174.45 107.579C174.877 106.744 175.46 105.993 175.999 105.229C176.43 104.617 176.823 103.955 177.215 103.317C177.66 102.591 178.121 101.839 178.352 101.012C178.469 100.595 178.571 100.045 178.222 99.7091C177.925 99.4231 175.584 99.1485 174.846 99.0231C174.027 98.8847 173.211 98.7331 172.389 98.6111C172.059 98.5618 164.643 97.25 163.655 97.0523C162.779 96.8766 157.505 95.6747 157.067 95.5273C156.841 95.4516 156.377 95.2137 156.223 95.5488C156.181 95.6365 156.163 95.7336 156.172 95.8303C156.187 95.8553 156.229 95.9988 156.262 96.0493C156.384 96.2375 156.582 96.6293 156.603 96.7538C156.64 96.9827 156.655 97.2105 156.633 97.4413C156.601 97.8145 156.411 98.0129 156.191 98.2978C155.765 98.8466 155.332 99.3894 154.92 99.9492C153.995 101.205 153.154 102.516 152.278 103.805C151.322 105.212 150.266 106.55 149.331 107.969C148.638 109.022 148.016 110.138 147.406 111.239C146.949 112.064 146.398 112.817 145.883 113.603C145.473 114.238 145.083 114.884 144.713 115.542C144.271 116.319 143.812 117.089 143.238 117.777C142.876 118.212 139.924 123.08 139.613 123.703C139.467 124.006 139.307 124.301 139.135 124.589C138.948 124.893 138.778 125.341 138.43 125.495C137.966 125.697 137.496 125.885 137.02 126.059C136.741 126.162 136.421 126.235 136.213 126.463C135.921 126.781 136.032 127.202 136.412 127.368C137.022 127.634 137.788 127.633 138.446 127.705C139.14 127.78 139.821 127.903 140.505 128.037C141.767 128.283 150.787 129.799 152.378 129.989C153.07 130.073 153.759 130.16 154.442 130.301C155.167 130.451 155.898 130.528 156.613 130.723C157.537 130.971 158.47 131.182 159.411 131.357C159.764 131.424 160.087 131.389 160.399 131.191C160.7 131.001 161.296 129.894 161.432 129.626C161.626 129.246 162.685 127.006 163.104 126.313C163.588 125.511 165.439 122.243 165.472 121.965ZM91.1183 66.6234C90.6035 68.0397 89.2154 68.9652 87.7575 69.2126C87.2317 69.3019 86.7555 69.2457 86.2328 69.2033C85.8137 69.1694 85.385 69.2074 84.9706 69.1516C84.5356 69.0932 84.1009 69.0223 83.6623 68.9916C84.4357 68.0436 85.0905 66.9866 85.8035 65.992C86.3968 65.165 86.9745 64.2474 87.7972 63.6235C88.1497 63.3557 88.7197 63.0586 89.1668 63.1213C89.6905 63.194 90.1331 63.323 90.5691 63.6269C91.0119 63.9363 91.2998 64.3197 91.3686 64.8625C91.4449 65.464 91.2933 66.0502 91.1183 66.6234ZM87.3719 72.286C87.0899 73.0693 86.727 73.821 86.2889 74.529C85.8176 75.2862 85.1179 75.936 84.2628 76.2149C83.4474 76.4798 82.4758 76.5634 81.6241 76.4928C80.8672 76.4298 80.1302 76.1952 79.3801 76.0793C80.043 74.7249 80.8238 73.395 81.6375 72.1265C82.0552 71.4749 82.3938 70.7679 82.827 70.131C82.9254 69.987 82.9963 69.8026 83.1533 69.7768C83.27 69.7577 83.4761 69.8255 83.5975 69.8432C84.1327 69.9247 84.6695 69.995 85.2076 70.0539C85.7533 70.1118 86.5005 70.1089 86.922 70.5058C87.4395 70.9935 87.5565 71.6198 87.3719 72.286ZM95.0015 65.7525C94.9604 65.4547 94.9169 65.1456 94.7712 64.885C94.6264 64.6144 94.4649 64.3531 94.2878 64.1026C93.913 63.5916 93.2774 63.3228 92.6992 63.1182C91.955 62.855 88.2444 62.1974 87.7384 62.1033C87.1656 61.9956 86.5959 61.8786 86.0218 61.7828C85.271 61.6583 84.5277 61.4963 83.7723 61.4005C83.4743 61.3625 82.3655 61.0887 82.7024 61.6624C82.7286 61.7077 82.7746 61.7451 82.8053 61.8034C82.8483 61.8813 82.868 61.9839 82.8981 62.0677C82.9427 62.1915 82.99 62.3136 83.0382 62.4353C83.1552 62.7344 83.2019 62.8994 83.0477 63.1922C82.779 63.7034 82.3597 64.1558 82.01 64.6113C81.7943 64.8912 81.5795 65.1706 81.365 65.451C80.9942 65.9348 80.6381 66.4232 80.3013 66.9312C79.7515 67.7605 79.138 68.5412 78.5832 69.3657C77.9835 70.257 77.4193 71.1807 76.7874 72.0499C76.2505 72.787 75.6725 73.495 75.1368 74.2325C74.9517 74.4885 74.7892 74.7605 74.6199 75.027C74.3277 75.4862 73.8033 75.5274 73.3493 75.7383C73.1561 75.8281 73.1027 76.0502 73.3072 76.1668C73.4093 76.2253 73.6093 76.2392 73.7254 76.2581C74.1488 76.3279 74.5777 76.3582 75.0017 76.4179L75.3698 76.4681C75.4146 76.4743 75.4822 76.4703 75.5218 76.4891C75.6232 76.5376 77.0694 76.786 77.3236 76.8328C77.5599 76.8773 79.3483 77.1592 79.5716 77.1964C79.8605 77.2413 80.1477 77.2961 80.4328 77.3606C81.3075 77.5672 82.1654 77.7982 83.0551 77.935C84.3254 78.1305 85.6395 78.4342 86.9306 78.3903C87.4574 78.3675 87.9816 78.3036 88.4985 78.1992C88.7761 78.1448 89.0364 78.0576 89.2609 77.8816C89.354 77.8092 89.5832 77.6886 89.6549 77.5936C89.7255 77.503 90.1013 77.0567 90.2556 76.8913C90.4431 76.6899 90.544 76.4139 90.6908 76.1808C90.9123 75.8295 91.0761 75.4077 91.2132 75.0196C91.662 73.7514 91.8943 72.4398 91.1447 71.2355C90.8479 70.7588 90.4302 70.4302 89.9281 70.1867C90.3147 70.1756 90.7435 70.0512 91.1102 69.9514C91.8029 69.7636 92.4794 69.4211 93.0778 69.0276C94.1275 68.3366 95.1926 67.1081 95.0009 65.7522L95.0015 65.7525ZM113.593 66.6616C113.76 66.5667 113.913 66.3791 113.858 66.1772C113.8 65.9674 113.574 65.9886 113.389 65.9443C112.892 65.8269 111.501 65.6096 111.39 65.5732C111.126 65.4858 110.748 65.4494 110.481 65.3738C110.073 65.2581 109.514 65.1238 109.089 65.2373C108.722 65.3347 108.632 65.6526 108.907 65.9482C109.227 66.2928 109.805 66.3277 110.169 66.6261C110.702 67.0623 109.943 68.0557 109.715 68.5201C109.47 69.0186 106.94 73.0492 106.323 73.9274C105.759 74.7315 105.234 75.5504 104.57 76.2787C103.872 77.0442 103.101 77.7256 102.202 78.246C101.402 78.7099 100.311 79.2052 99.3842 78.817C99.1672 78.7219 98.9693 78.5883 98.7999 78.4227C98.7231 78.3501 98.6478 78.2759 98.5742 78.2001C98.4997 78.1248 98.3741 77.3872 98.4135 77.2479C98.479 77.0167 98.5482 76.7864 98.6213 76.557C98.8866 75.725 99.3324 74.7556 99.7189 73.9023C100.115 73.027 100.527 72.1518 100.973 71.3008C101.556 70.1879 102.203 69.1075 102.829 68.0173C103.018 67.6857 103.232 67.3716 103.441 67.0521C103.653 66.7273 103.863 66.3266 104.208 66.1205C104.603 65.884 106.322 65.8063 105.861 64.9795C105.698 64.6876 105.328 64.6435 105.034 64.575C104.774 64.5146 104.504 64.4783 104.231 64.4105C103.39 64.2015 102.518 64.1168 101.666 63.9588C101.041 63.8432 100.451 63.6908 99.8189 63.6136C99.6084 63.5878 98.9927 63.428 98.9297 63.7652C98.9137 63.8513 98.9593 63.9191 98.9459 64.0042C98.9318 64.089 99.2539 64.4841 99.3904 64.6143C99.4524 64.6741 99.639 64.8523 99.6673 64.8819C99.7148 64.933 99.7484 65.0426 99.764 65.1074C99.8034 65.268 99.7784 65.2886 99.6853 65.4404L99.7174 65.4004C99.0932 66.3307 98.5149 67.291 97.9846 68.2779C97.663 68.879 97.3644 69.4922 97.0331 70.088C96.7826 70.5404 96.5068 70.9797 96.2723 71.4406C95.7212 72.5283 95.1737 73.655 94.7291 74.7905C94.483 75.4179 94.2764 76.0905 94.3574 76.7718C94.4361 77.4328 94.7797 77.9987 95.2777 78.4313C95.7044 78.8031 96.1899 79.0859 96.6987 79.3315C97.0271 79.4889 97.3567 79.5655 97.6803 79.714C97.9348 79.8306 98.7179 80.0336 98.8401 80.0439C99.0145 80.0578 99.1863 80.0986 99.3621 80.1089C99.7121 80.1297 100.109 80.1924 100.458 80.155C101.137 80.0821 101.805 80.0325 102.434 79.7636C104.469 78.897 106.789 76.0957 108.046 73.6813C108.434 72.9376 108.84 72.2028 109.239 71.4657C109.635 70.7337 110.112 70.0486 110.473 69.2963C110.629 68.9715 110.781 68.6451 110.935 68.3189L111.2 67.7705C111.261 67.6422 111.425 67.2629 111.54 67.1734C111.725 67.0283 112.125 67.0893 112.367 67.0433C112.793 66.9644 113.214 66.8795 113.593 66.6622L113.593 66.6616ZM131.71 69.9615C131.551 69.541 130.773 69.5278 130.412 69.4541C129.829 69.335 129.246 69.2136 128.657 69.1263C128.124 69.0465 127.615 68.9678 127.09 68.8425C126.69 68.7465 126.292 68.6445 125.888 68.5667C124.285 68.2596 122.649 68.1242 121.044 67.8172C120.637 67.7394 120.229 67.6613 119.822 67.5821C119.038 67.4287 118.255 67.3791 117.466 67.2823C116.967 67.2203 116.469 67.1537 115.97 67.0985C115.757 67.0755 115.545 67.0198 115.344 67.0995C115.14 67.1795 114.939 67.3467 114.776 67.492C114.571 67.6766 114.418 67.8699 114.259 68.0937C114.095 68.3241 113.853 68.4961 113.674 68.7266C113.459 69.0026 113.093 69.6546 113.674 69.7704C113.974 69.8311 114.297 69.5862 114.54 69.4405C114.778 69.2976 115.009 69.1451 115.237 68.9887C115.791 68.6105 116.306 68.2655 116.989 68.2189C117.617 68.1748 118.262 68.2767 118.878 68.3838C119.172 68.4349 119.465 68.4925 119.759 68.5418C119.916 68.5679 120.541 68.5787 120.61 68.7066C120.514 69.1397 120.072 69.5558 119.795 69.8916C119.439 70.3272 119.099 70.775 118.774 71.234C118.125 72.1403 117.497 73.064 116.877 73.991C116.291 74.8661 115.723 75.7534 115.175 76.6524C114.971 76.9877 114.753 77.3149 114.547 77.6487C114.363 77.9474 113.076 79.8995 112.625 80.5751C112.327 81.0203 111.957 81.3984 111.436 81.5641C111.052 81.6857 110.577 81.6788 110.283 81.9943C109.857 82.449 110.344 82.8147 110.785 82.9112C111.317 83.0272 111.882 83.049 112.423 83.0933C113.36 83.1706 114.301 83.2939 115.225 83.4713C115.908 83.6028 116.584 83.7688 117.27 83.8867C117.637 83.9501 117.996 84.0656 118.365 84.1208C118.881 84.1987 119.328 83.8531 119.087 83.3039C118.947 82.9874 118.518 82.7253 118.435 82.4C118.337 82.0176 118.612 81.5946 118.789 81.2831C119.051 80.8215 119.343 80.386 119.628 79.9384C120.372 78.7699 121.093 77.585 121.878 76.4439C122.874 74.9941 123.928 73.5789 124.863 72.0871C125.117 71.6814 125.385 71.2875 125.679 70.9098C125.854 70.6868 126.033 70.4665 126.215 70.249C126.302 70.1437 126.462 69.8464 126.598 69.7902C126.646 69.7695 126.729 69.8044 126.788 69.8182C127.084 69.8874 127.382 69.9477 127.679 70.0118C128.138 70.1114 128.586 70.2146 129.05 70.2802C129.312 70.3157 129.569 70.3788 129.818 70.4686C130.026 70.5457 130.066 70.6201 130.072 70.8474C130.082 71.2789 129.841 71.7015 129.786 72.1302C129.725 72.6041 130.121 72.9767 130.415 72.4786C130.674 72.04 130.957 71.6087 131.215 71.1657C131.392 70.8624 131.861 70.343 131.71 69.9615ZM155.224 74.4263C155.319 74.6566 155.367 74.8849 155.386 75.1333C155.403 75.3525 155.351 75.6746 155.506 75.8554C155.866 76.2732 156.27 75.5328 156.458 75.3032C156.712 74.9934 157.342 74.4108 157.231 73.963C157.171 73.7246 156.96 73.716 156.76 73.6686C156.489 73.6067 156.225 73.5103 155.956 73.4398C154.808 73.1411 144.014 71.471 142.907 71.3143C142.704 71.2862 142.501 71.2578 142.299 71.2195C142.258 71.2115 142.166 71.2037 142.124 71.1839C142.078 71.1605 141.558 71.1009 141.428 71.1424C141.225 71.2069 141.055 71.2564 141.013 71.4986C140.968 71.7664 141.171 71.9849 141.376 72.1226C141.482 72.193 141.812 72.2997 141.849 72.4084C141.896 72.55 141.663 72.9305 141.603 73.057C141.468 73.3464 141.33 73.6319 141.21 73.9286C140.427 75.8368 139.298 77.589 138.252 79.3579C137.955 79.8603 137.717 80.3948 137.412 80.8912C137.115 81.3749 136.823 81.8615 136.532 82.3484C136.278 82.7721 136.021 83.2035 135.734 83.605C135.573 83.8295 135.042 84.7157 134.869 84.9342C134.666 85.1913 134.509 85.2605 134.195 85.3343C133.948 85.3921 133.694 85.4515 133.463 85.5595C133.042 85.7581 132.792 86.2162 133.322 86.4479C133.781 86.6492 134.31 86.7101 134.791 86.8453C135.135 86.9424 139.938 87.5639 139.965 87.5817C140.168 87.705 140.41 87.6587 140.51 87.4253C140.665 87.0621 140.312 86.779 140.051 86.5984C139.899 86.4935 139.771 86.453 139.766 86.275C139.76 86.0618 140.025 85.714 140.123 85.5314C140.374 85.064 140.633 84.6034 140.896 84.1428C141.263 83.4992 141.649 82.8685 142.037 82.2379C142.456 81.5588 142.868 80.8788 143.276 80.1934C143.381 80.0163 143.491 79.8417 143.603 79.6696C143.648 79.6002 143.717 79.4383 143.782 79.3959C143.882 79.3311 144.082 79.4014 144.215 79.4228C144.822 79.5228 145.431 79.607 146.038 79.7083C146.582 79.7979 147.129 79.8759 147.677 79.9425C148.044 80.009 147.459 80.8012 147.76 80.9401C148.075 81.085 148.334 80.6647 148.513 80.4761C148.721 80.2577 149.754 78.9216 149.223 78.8732C148.902 78.844 148.71 79.183 148.019 79.1358C147.626 79.1092 147.333 79.0404 146.945 78.9944C146.06 78.8891 145.214 78.6632 144.358 78.4247C144.665 77.9507 144.986 77.4877 145.282 77.0064L145.248 77.0498C145.779 76.2727 146.254 75.4592 146.77 74.6718C147.156 74.083 147.677 72.9564 148.49 72.9474C148.762 72.9438 151.409 73.2784 151.943 73.3925C152.539 73.5195 155.071 73.9689 155.124 74.0309C155.16 74.072 155.193 74.3518 155.224 74.4263ZM166.711 77.7032C167.222 77.0392 168.156 77.2001 168.876 76.962C169.136 76.8761 169.47 76.7184 169.538 76.4213C169.574 76.2585 169.507 76.1123 169.396 75.9997C169.349 75.9514 169.253 75.8639 169.178 75.8573C169.089 75.8494 168.632 75.809 168.477 75.7689C168.287 75.7193 164.776 75.2493 163.892 75.1213C163.078 75.004 160.6 74.4899 160.149 74.4974C160.021 74.5 159.671 74.4019 159.513 74.4978C159.44 74.5637 159.41 74.6301 159.435 74.5916C159.388 74.6629 159.371 74.7054 159.382 74.8C159.39 74.8631 159.459 74.9443 159.501 74.9872C159.693 75.1891 159.861 75.3795 160.07 75.5589C160.337 75.7884 160.519 75.884 160.468 76.2798C160.416 76.6856 160.206 77.086 160.021 77.445C159.417 78.6172 156.644 83.2168 155.896 84.4053C155.565 84.9308 154.024 87.6106 153.697 87.9209C153.814 87.806 153.606 87.983 153.552 88.0157C153.44 88.0851 153.318 88.1425 153.199 88.1991C152.887 88.3481 152.562 88.4417 152.239 88.5629C151.944 88.6731 150.81 89.0044 151.315 89.5141C151.53 89.7309 154.515 90.155 155.175 90.326C155.812 90.4902 159.432 91.0159 159.734 91.0762C159.97 91.1227 160.233 91.2136 160.428 91.0082C160.869 90.5389 160.089 90.2094 159.799 90.0014C159.75 89.9663 159.65 89.9133 159.611 89.86C159.541 89.7661 159.546 89.7784 159.587 89.646C159.612 89.5631 159.639 89.4811 159.67 89.4001C159.765 89.1463 159.892 88.9025 160.023 88.6658C160.304 88.1566 160.56 87.634 160.864 87.1385L160.836 87.1683C161.388 86.3576 163.032 83.4555 163.388 82.8513C163.895 81.9908 164.38 81.1172 164.952 80.2982C165.546 79.4473 166.078 78.5237 166.711 77.7038L166.711 77.7032ZM174.597 82.6752C175.232 81.7111 175.754 80.6917 176.43 79.7534C176.71 79.3656 176.952 78.9545 177.22 78.5592C177.307 78.4314 177.389 78.3003 177.486 78.1794C177.535 78.1192 177.713 77.8741 177.799 77.8393C177.997 77.761 178.224 77.8082 178.768 78.0295C179.278 78.1982 179.853 78.5386 180.107 79.0498C180.364 79.5662 180.254 80.2365 180.097 80.7718C179.982 81.1633 179.756 81.4744 179.523 81.8003C179.219 82.2262 178.904 82.6282 178.525 82.9889C178.3 83.2017 178.063 83.4013 177.827 83.6003C177.711 83.6978 177.596 83.7946 177.478 83.8892C177.412 83.9421 177.179 84.1791 177.099 84.1743C176.967 84.1653 176.664 83.842 176.536 83.7618C176.373 83.66 176.175 83.5015 176 83.4228C175.474 83.1835 174.989 83.0415 174.472 82.8614C174.517 82.8016 174.558 82.7395 174.597 82.6752ZM182.238 92.9635C182.268 92.7946 182.237 92.5687 182.048 92.5134C181.85 92.4565 181.676 92.6641 181.575 92.8055C181.32 93.1606 181.313 93.5853 180.884 93.818C180.556 93.9955 179.992 94.0451 179.638 94.0041C179.2 93.9528 178.946 93.4864 178.79 93.0863C178.19 91.5589 178.635 90.1022 178.596 88.5328C178.566 87.3395 178.192 86.2094 177.676 85.1482C178.472 85.0668 179.268 84.9149 180.025 84.6469C180.761 84.3868 181.528 84.1923 182.224 83.8283C183.377 83.225 184.316 82.3117 184.572 80.9984L184.588 80.9062C184.548 81.1405 184.603 80.8057 184.605 80.7843C184.614 80.7159 184.618 80.6471 184.619 80.5783C184.619 80.4046 184.6 80.2315 184.563 80.062C184.48 79.6673 184.336 79.2884 184.134 78.9393C183.754 78.3043 183.097 77.9639 182.425 77.716C182.211 77.6369 182 77.5586 181.773 77.5263C181.655 77.5093 180.994 77.3917 180.786 77.3446C180.054 77.1826 172.189 75.9299 172.113 75.8999C171.962 75.8404 171.812 75.8838 171.655 75.9257C171.349 76.0068 171.419 76.255 171.672 76.385C171.924 76.5157 172.218 76.5772 172.477 76.7046C172.626 76.7771 172.774 76.7845 172.764 76.9509C172.756 77.0613 172.646 77.2263 172.598 77.3326C172.47 77.6233 172.321 77.8995 172.167 78.1769C171.707 79.0027 171.188 79.8006 170.681 80.5963C170.246 81.279 168.766 83.6767 168.445 84.1875C168.148 84.6613 165.927 88.476 165.468 89.2151C165.324 89.4468 165.178 89.6744 165.014 89.8918C164.873 90.0759 164.707 90.2389 164.52 90.3761C164.393 90.4681 164.313 90.4859 164.162 90.561C164.01 90.6368 163.681 90.7756 163.704 90.9512C163.717 91.0581 163.791 91.0796 163.869 91.1103C163.989 91.1585 164.155 91.1954 164.285 91.2279C164.536 91.2909 164.796 91.3266 165.052 91.3657C165.534 91.4385 167.752 91.9036 168.381 92.0554C168.708 92.1348 169.966 92.4086 170.075 91.9811C170.143 91.7121 169.836 91.5828 169.71 91.3906C169.546 91.1416 169.517 90.9022 169.582 90.6097C169.707 90.0463 170.115 89.5667 170.397 89.0727C171.374 87.3557 172.53 85.7151 173.67 84.1056C173.702 84.0619 173.733 84.0182 173.764 83.9735C173.893 83.789 173.893 83.7574 174.069 83.8925C174.346 84.1047 174.592 84.4029 174.714 84.7376C174.984 85.4783 174.828 86.314 174.776 87.0803C174.721 87.8981 174.718 88.7113 174.714 89.5304C174.711 90.308 174.607 91.0881 174.656 91.8644C174.705 92.6337 174.906 93.4087 175.38 94.0216C175.816 94.5858 176.443 94.9806 177.084 95.2711C177.805 95.5987 178.536 95.6388 179.313 95.4963C179.995 95.3717 180.799 95.1507 181.335 94.6841C181.873 94.2168 182.107 93.636 182.237 92.9633L182.238 92.9635Z" fill="black"/>
<path fill-rule="evenodd" clip-rule="evenodd" d="M198.141 87.0008C198.473 86.5071 198.799 86.0156 199.102 85.5037C199.246 85.2612 199.386 85.0127 199.519 84.7636C199.613 84.5886 199.68 84.3551 199.45 84.2451C199.216 84.1333 199.118 84.3449 198.981 84.4784C198.786 84.671 198.073 84.9098 197.861 84.6133C197.769 84.486 197.79 84.1743 197.777 84.0158C197.751 83.7124 197.726 83.4079 197.674 83.1076C197.546 82.395 197.324 81.6927 196.874 81.1077C196.629 80.7905 195.911 80.3657 195.537 80.2157C195.05 80.0208 193.763 79.6459 193.405 79.5897C192.904 79.5108 191.947 79.4577 191.446 79.5459C190.96 79.6312 189.44 80.2351 189.041 80.5691C188.235 81.2442 187.784 82.121 187.613 83.148C187.41 84.3562 187.602 85.6125 187.99 86.7686C188.364 87.8835 188.773 89.049 189.12 90.1328L189.161 90.2662C189.1 90.0829 189.163 90.2784 189.171 90.3093C189.192 90.3875 189.214 90.4668 189.234 90.5457C189.273 90.7006 189.309 90.8551 189.333 91.0128C189.376 91.3066 189.377 91.5998 189.346 91.8936C189.278 92.5291 189.137 93.1411 188.806 93.6932C188.515 94.1786 188.073 94.6358 187.466 94.6388C186.789 94.642 186.324 94.2835 185.917 93.7795C185.229 92.9272 184.739 91.8775 184.49 90.8163C184.271 89.8787 184.269 88.8867 184.005 87.9617C183.943 87.7446 183.873 87.6481 183.655 87.7495C183.514 87.8151 182.887 88.7587 182.793 88.8694C182.22 89.5396 181.716 90.3308 181.272 91.0895C181.131 91.3318 180.984 91.5712 180.835 91.8089C180.715 91.9987 180.646 92.2041 180.526 92.3873C180.439 92.5194 180.319 92.6323 180.379 92.804C180.475 93.0762 180.745 92.9937 180.922 92.8792C181.149 92.7339 181.369 92.5762 181.593 92.4271C181.994 92.1609 182.62 91.6899 183.137 91.7683C183.317 91.7959 183.772 92.4749 183.942 92.6858C184.142 92.9359 184.281 93.3001 184.433 93.5857C184.673 94.0323 184.995 94.4561 185.308 94.8539C185.497 95.0934 186.315 95.9426 186.463 96.0126C186.779 96.1609 187.113 96.3144 187.439 96.4363C188.431 96.8063 189.631 96.6861 190.661 96.5659C191.746 96.4398 192.821 95.9025 193.432 94.9869C194.093 93.9936 194.458 92.8024 194.288 91.6028C194.205 91.0252 193.989 90.4872 193.91 89.9125C193.822 89.2662 193.653 88.638 193.497 88.0057C193.204 86.8204 192.879 85.674 192.725 84.4615C192.652 83.8878 192.497 83.2105 192.629 82.6366C192.757 82.0758 193.209 81.5726 193.78 81.5228C194.027 81.5015 194.41 81.4868 194.63 81.6082C194.914 81.7652 195.167 81.9473 195.388 82.183C195.804 82.6292 196.18 83.1241 196.49 83.6575C197.027 84.5855 197.03 85.7023 196.935 86.7366C196.906 87.0505 196.862 87.3624 196.842 87.6779C196.831 87.8531 196.775 88.095 196.852 88.2559C197.023 88.618 197.42 88.0976 197.538 87.9132C197.733 87.6055 197.937 87.3022 198.141 87.0008ZM189.036 90.1393L189.024 90.101L189.036 90.1393ZM218.255 84.7659C218.219 84.4381 217.891 84.3409 217.62 84.2801C217.182 84.1843 216.741 84.0983 216.301 84.0095C215.431 83.8341 211.356 83.0874 210.17 82.9117C209.139 82.759 205.27 82.0327 204.342 81.9801C203.65 81.9408 202.96 81.824 202.271 81.748C201.968 81.7141 201.81 81.7583 201.548 81.9226C201.363 82.0387 201.195 82.1951 201.044 82.3527C200.894 82.51 200.712 82.8246 200.594 82.9483C200.458 83.0909 200.087 83.5211 199.989 83.6924C199.789 84.039 199.692 84.2515 200.056 84.4113C200.398 84.5619 200.813 84.2314 201.093 84.0598C201.468 83.8301 201.82 83.5664 202.191 83.3318C202.933 82.8625 203.685 82.8407 204.532 82.936C204.935 82.9814 206.853 83.2279 207.022 83.3346C207.203 83.4491 206.886 83.7927 206.776 83.9418C206.506 84.3089 206.2 84.6464 205.919 85.0042C205.398 85.6685 204.918 86.3726 204.442 87.0694C203.52 88.4191 202.601 89.7744 201.749 91.1691C201.593 91.425 201.43 91.6739 201.267 91.9246C201.134 92.1271 199.087 95.4415 198.61 95.8418C198.354 96.0578 198.052 96.2028 197.729 96.2814C197.409 96.3596 197.043 96.3943 196.789 96.6303C196.478 96.9191 196.569 97.3063 196.929 97.4788C197.273 97.644 197.703 97.6502 198.075 97.6888C198.851 97.7694 202.614 98.4737 203.773 98.6796C204.234 98.7609 205.287 99.1033 205.59 98.5462C205.782 98.1915 205.514 97.8245 205.299 97.5643C205.165 97.402 204.95 97.2374 204.926 97.0242C204.864 96.4884 205.275 95.9504 205.544 95.5035C205.745 95.1698 205.972 94.8514 206.181 94.5223C206.824 93.5146 207.438 92.478 208.117 91.494C208.284 91.2523 208.448 91.0082 208.617 90.7686C209.061 90.139 209.477 89.4798 209.938 88.8641C210.841 87.6586 211.563 86.3315 212.52 85.1651C212.65 85.0066 212.781 84.8492 212.912 84.692C212.94 84.6585 213.047 84.4915 213.099 84.4693C213.252 84.4038 215.718 84.975 216.059 85.0677C216.419 85.167 216.606 85.2134 216.584 85.6194C216.566 85.953 216.406 86.2992 216.333 86.6262C216.276 86.8824 216.21 87.3493 216.565 87.4135C216.876 87.4692 217.033 86.9935 217.156 86.7748C217.361 86.4058 218.246 85.1062 218.255 84.7661L218.255 84.7659ZM213.14 98.8702C213.14 97.7382 211.916 96.963 210.801 97.1327C209.787 97.2875 208.787 98.8103 210.162 99.3375C210.293 99.3877 210.766 99.4071 210.8 99.5411C210.849 99.7351 210.322 99.9227 210.194 99.9791C209.734 100.182 209.256 100.168 208.773 100.289C208.599 100.332 208.369 100.459 208.488 100.664C208.58 100.822 208.94 100.929 209.105 100.988C209.54 101.144 210.002 101.215 210.464 101.199C211.819 101.144 213.132 100.196 213.14 98.8702ZM195.139 134.38C194.245 133.811 193.035 134.085 192.25 134.702C191.816 135.043 191.444 135.462 191.482 136.039C191.513 136.513 191.729 136.955 192.114 137.245C192.903 137.837 194.322 137.661 194.959 136.94C195.555 136.266 196.128 135.008 195.139 134.38ZM194.777 126.821C194.793 126.683 194.74 126.549 194.587 126.516C194.472 126.492 194.051 125.899 193.277 126.919C192.553 127.874 188.159 130.83 186.879 131.462C186.141 131.828 185.383 132.151 184.608 132.428C183.906 132.678 183.217 132.88 182.462 132.858C181.771 132.836 181.074 132.723 180.394 132.608C179.538 132.464 177.869 132.205 177.897 132.196C177.559 132.06 177.012 131.949 176.709 131.63C176.58 131.494 176.594 131.053 176.594 130.874C176.595 130.078 177.148 129.339 177.431 128.616C177.66 128.031 177.985 127.49 178.277 126.933C178.673 126.174 182.337 120.246 182.579 119.787C182.824 119.322 183.099 118.87 183.365 118.416C183.437 118.293 183.498 118.113 183.621 118.076C183.748 118.039 183.965 118.099 184.105 118.106C184.63 118.137 185.15 118.216 185.671 118.291C186.131 118.356 186.586 118.458 187.033 118.582C187.219 118.634 187.396 118.659 187.521 118.787C187.678 118.948 187.73 119.16 187.715 119.381C187.686 119.863 187.482 120.386 187.331 120.843C187.213 121.198 187.057 121.538 186.936 121.891C186.823 122.223 186.568 122.683 186.737 123.027C186.911 123.387 187.319 123.33 187.591 123.129C188.183 122.69 188.568 121.87 188.953 121.255C189.413 120.518 189.886 119.794 190.352 119.062C191.116 117.859 192.056 116.731 192.669 115.441C192.801 115.163 193.09 114.597 192.931 114.286C192.74 113.914 192.259 114.231 192.033 114.385C191.234 114.926 190.69 115.736 189.976 116.37C189.626 116.681 189.187 116.964 188.727 117.069C188.255 117.175 187.791 117.071 187.327 116.972C186.729 116.845 186.124 116.746 185.524 116.63C185.195 116.567 184.865 116.522 184.533 116.479C185.325 115.336 188.913 110.456 189.908 109.126C190.354 108.531 190.769 107.912 191.223 107.322C191.696 106.707 192.135 106.042 192.651 105.465C192.919 105.164 193.699 104.314 193.933 104.189C194.032 104.136 194.633 104.158 194.75 104.145C194.904 104.128 195.136 104.205 195.288 104.229C196.108 104.357 196.931 104.484 197.748 104.633C198.546 104.776 199.335 104.971 200.107 105.218C201.118 105.546 202.291 106.064 202.68 107.144C202.85 107.617 202.845 108.11 202.847 108.607C202.848 109.139 202.799 109.663 202.633 110.172C202.368 110.984 202.07 111.779 201.859 112.607C201.76 112.999 200.974 114.699 201.868 114.668C202.376 114.65 202.701 113.975 202.988 113.641C203.296 113.283 203.534 112.865 203.754 112.435C204.181 111.6 204.764 110.85 205.303 110.085C205.735 109.473 206.127 108.811 206.519 108.173C206.964 107.447 207.425 106.695 207.656 105.869C207.773 105.451 207.875 104.901 207.526 104.565C207.229 104.279 204.888 104.005 204.15 103.88C203.331 103.742 202.515 103.589 201.693 103.467C201.362 103.418 193.947 102.106 192.959 101.908C192.083 101.733 186.809 100.531 186.371 100.383C186.145 100.308 185.682 100.07 185.527 100.405C185.485 100.493 185.468 100.59 185.476 100.686C185.491 100.712 185.533 100.855 185.566 100.905C185.688 101.094 185.886 101.485 185.907 101.61C185.945 101.839 185.959 102.067 185.937 102.297C185.905 102.671 185.716 102.869 185.495 103.154C185.07 103.703 184.636 104.246 184.224 104.805C183.299 106.06 182.459 107.373 181.582 108.662C180.626 110.068 179.569 111.407 178.635 112.826C177.942 113.879 177.321 114.994 176.71 116.096C176.253 116.92 175.702 117.673 175.187 118.46C174.777 119.094 174.387 119.74 174.017 120.398C173.574 121.175 173.116 121.945 172.542 122.634C172.18 123.069 169.227 127.937 168.917 128.56C168.768 128.861 168.615 129.159 168.439 129.445C168.252 129.749 168.082 130.197 167.734 130.351C167.27 130.553 166.799 130.741 166.324 130.915C166.045 131.018 165.725 131.091 165.517 131.319C165.225 131.637 165.336 132.058 165.716 132.224C166.325 132.491 167.092 132.489 167.75 132.561C168.444 132.636 169.125 132.759 169.809 132.893C171.071 133.14 180.091 134.655 181.682 134.845C182.374 134.929 183.063 135.016 183.746 135.158C184.471 135.308 185.202 135.384 185.917 135.579C186.841 135.827 187.774 136.038 188.715 136.213C189.068 136.28 189.391 136.245 189.703 136.048C190.004 135.858 190.6 134.75 190.736 134.482C190.93 134.102 191.989 131.863 192.408 131.169C192.892 130.368 194.743 127.1 194.776 126.822" fill="black"/>
</g>
<defs>
<clipPath id="clip0_1_5727">
<rect width="192.001" height="129.104" fill="white" transform="translate(48.8409 0.181396) rotate(21.9612)"/>
</clipPath>
</defs>
</svg>
