<svg width="19" height="11" viewBox="0 0 19 11" fill="none" xmlns="http://www.w3.org/2000/svg">
<path d="M17.9889 0.783971C17.6767 0.473552 17.2542 0.299316 16.8139 0.299316C16.3736 0.299316 15.9512 0.473552 15.6389 0.783971L9.65559 6.68397L3.75559 0.783971C3.44332 0.473552 3.0209 0.299316 2.58059 0.299316C2.14029 0.299316 1.71787 0.473552 1.40559 0.783971C1.24938 0.938909 1.12539 1.12324 1.04078 1.32634C0.956161 1.52944 0.912598 1.74728 0.912598 1.9673C0.912598 2.18732 0.956161 2.40517 1.04078 2.60827C1.12539 2.81136 1.24938 2.9957 1.40559 3.15064L8.47226 10.2173C8.6272 10.3735 8.81153 10.4975 9.01463 10.5821C9.21773 10.6667 9.43557 10.7103 9.65559 10.7103C9.87561 10.7103 10.0935 10.6667 10.2966 10.5821C10.4997 10.4975 10.684 10.3735 10.8389 10.2173L17.9889 3.15064C18.1451 2.9957 18.2691 2.81136 18.3537 2.60827C18.4384 2.40517 18.4819 2.18732 18.4819 1.9673C18.4819 1.74728 18.4384 1.52944 18.3537 1.32634C18.2691 1.12324 18.1451 0.938909 17.9889 0.783971Z" fill="#333333"/>
</svg>
