<svg width="140" height="144" viewBox="0 0 140 144" fill="none" xmlns="http://www.w3.org/2000/svg">
<path d="M131.849 47.9963L125.686 25.2072L100.332 32.1035L98.1148 17.7316L93.435 27.0403C92.9965 27.0439 92.558 27.0303 92.1205 26.9993L78.113 0L57.2733 10.8873L70.4135 14.0015L55.551 21.7655L52.5697 21.2787C51.3498 20.3571 49.8941 19.6053 48.2283 19.0437L32.0323 13.579L25.9748 5.01169L13.2618 43.1839L0 48.5588L8.99648 54.0754L17.1137 74.2285L14.4618 84.4664L29.0401 78.5579L15.5668 89.2092L25.7476 91.9839L39.1435 109.059L39.2661 113.507C39.1568 113.659 39.0427 113.798 38.9424 113.954C37.3755 116.251 36.359 118.653 35.9293 121.104C35.4969 123.549 35.5786 125.979 36.1622 128.321C36.7396 130.621 37.7766 132.809 39.2456 134.826C40.6795 136.794 42.5111 138.551 44.6839 140.052C47.2008 141.79 49.7045 142.951 52.1311 143.506C54.5967 144.076 56.9667 144.151 59.1705 143.739C60.2358 143.542 61.2789 143.239 62.2843 142.834C63.3199 142.415 64.3075 141.885 65.2299 141.253C66.9811 140.05 68.4959 138.532 69.6982 136.777C71.8568 133.611 72.9503 130.433 72.9347 127.338C72.9336 126.886 72.9114 126.434 72.8681 125.983L76.2186 127.297L74.0063 130.541L84.1525 130.137L101.753 129.431L95.2994 121.415L95.1203 116.919L95.4776 116.905L103.132 119.78L102.764 110.781L106.208 114.341L106.753 115.715L104.12 125.666L133.655 113.866C134.228 113.78 134.788 113.628 135.326 113.412C137.242 112.636 138.666 111.198 139.439 109.26C140.182 107.375 140.189 105.405 139.449 103.566C139.078 102.643 138.531 101.801 137.839 101.088C137.147 100.384 136.325 99.8224 135.419 99.4347C134.542 99.0658 133.607 98.858 132.657 98.8211C131.522 98.7821 130.395 99.0223 129.369 99.4867L127.891 95.7599C128.484 95.6762 129.065 95.5218 129.622 95.2998C131.369 94.5918 132.691 93.3332 133.467 91.8075L134.262 88.6161C134.272 87.6166 134.083 86.6252 133.707 85.6998C132.555 82.8392 129.893 81.1305 127.013 81.1239L128.051 64.6876L133.305 63.2583L130.497 61.0094C130.692 60.6657 130.882 60.3167 131.071 59.9386C131.951 58.1917 132.4 56.1579 132.395 53.8904L132.401 53.8876C132.402 52.8876 132.204 51.8975 131.818 50.9755C131.44 50.0875 130.897 49.2796 130.218 48.5946C129.527 47.906 128.714 47.3521 127.821 46.9612C126.88 46.5488 125.846 46.3386 124.767 46.3319C123.954 46.3271 123.145 46.45 122.37 46.6961L120.666 40.3924L131.849 47.9967V47.9963Z" fill="black"/>
<path d="M66.4232 121.545C68.0286 123.432 68.8346 125.553 68.8446 127.908C68.8541 130.26 67.9853 132.717 66.2374 135.274C65.2933 136.659 64.0995 137.854 62.7177 138.798C61.3228 139.755 59.7635 140.395 58.0422 140.716C56.3213 141.037 54.4659 140.969 52.4756 140.512C50.489 140.055 48.4193 139.086 46.2769 137.607C44.4343 136.338 42.9169 134.881 41.7169 133.236C40.5211 131.593 39.688 129.847 39.2247 127.996C38.7594 126.15 38.7009 124.255 39.0422 122.313C39.3839 120.372 40.1946 118.463 41.4754 116.588C41.8903 115.979 42.3219 115.439 42.7743 114.969C43.2005 114.522 43.6431 114.092 44.1012 113.678C44.5332 113.287 44.93 112.929 45.285 112.595C45.6415 112.264 45.9314 111.934 46.1581 111.604C46.3467 111.326 46.4926 110.98 46.5905 110.56C46.6903 110.144 46.6932 109.811 46.6048 109.563L56.5584 116.425C55.6816 116.08 54.6997 115.815 53.62 115.63C52.5751 115.447 51.5123 115.389 50.4538 115.456C49.4472 115.522 48.4586 115.756 47.5292 116.149C46.6119 116.544 45.8853 117.133 45.3516 117.915C44.8368 118.668 44.5432 119.55 44.5042 120.461C44.4591 121.399 44.6696 122.391 45.1406 123.441C45.6115 124.491 46.3563 125.576 47.379 126.689C48.3993 127.803 49.7186 128.915 51.3359 130.03C52.6966 130.969 54.0406 131.71 55.3622 132.247C56.6834 132.785 57.9134 133.103 59.0535 133.2C60.1941 133.297 61.2301 133.163 62.1645 132.803C63.0988 132.443 63.8673 131.819 64.4742 130.932C65.4423 129.515 65.9332 128.101 65.9456 126.695C65.9579 125.288 65.4884 123.791 64.5322 122.2L66.4232 121.545Z" fill="white"/>
<path d="M81.3257 103.384C81.7914 105.609 81.9078 107.72 81.6726 109.715C81.435 111.712 80.8899 113.498 80.0354 115.078C79.1799 116.654 78.0298 117.989 76.5855 119.081C75.1436 120.168 73.4346 120.925 71.4576 121.338C69.482 121.755 67.6138 121.756 65.8563 121.343C64.0979 120.927 62.5077 120.174 61.0895 119.075C59.6723 117.976 58.4538 116.562 57.4301 114.831C56.4098 113.098 55.6646 111.12 55.1983 108.894C54.7236 106.638 54.6062 104.513 54.8438 102.517C55.0814 100.52 55.627 98.7334 56.4844 97.1525C57.3302 95.5871 58.5101 94.2284 59.9399 93.1735C61.3875 92.0984 63.097 91.3532 65.0726 90.9365C67.0482 90.5193 68.9141 90.5122 70.6696 90.9112C72.4025 91.2996 74.0285 92.067 75.4316 93.1587C76.8488 94.2571 78.0674 95.6712 79.0882 97.4037C80.1038 99.1344 80.8514 101.127 81.3257 103.383V103.384ZM64.1739 107C64.5337 108.713 64.9495 110.251 65.4238 111.614C65.8981 112.975 66.4114 114.112 66.9636 115.032C67.5159 115.953 68.1037 116.62 68.722 117.04C69.3427 117.46 69.9815 117.599 70.6373 117.46C71.2965 117.319 71.8235 116.934 72.2208 116.3C72.6181 115.666 72.8952 114.816 73.044 113.749C73.196 112.681 73.2151 111.43 73.1 109.993C72.985 108.556 72.7484 106.983 72.3867 105.266C72.0212 103.521 71.6006 101.97 71.1263 100.609C70.652 99.2469 70.1307 98.1093 69.5656 97.194C68.9963 96.2772 68.4041 95.6083 67.7844 95.1921C67.1666 94.772 66.5245 94.6333 65.8686 94.7725C65.2095 94.9132 64.682 95.2979 64.2851 95.9325C63.8878 96.5665 63.6217 97.4161 63.4834 98.4817C63.3484 99.5463 63.336 100.796 63.4515 102.232C63.5684 103.665 63.8084 105.255 64.1739 107Z" fill="white"/>
<path d="M98.4291 102.104L90.4035 102.425L90.6863 109.379L95.4088 109.19L98.5179 107.729L98.8154 115.005L95.5961 113.799L90.8735 113.987L91.2561 123.334L93.9161 126.642L80.6215 127.175L83.0058 123.667L82.0838 101.057L79.4238 97.749L101.387 96.8699L101.741 105.528L98.4291 102.104ZM122.544 87.4076L119.316 84.6582L96.8327 83.1955L93.2835 85.5058L94.6979 63.2002L103.308 63.7609L99.5811 66.7063L99.0554 75.0319L105.971 75.482L106.273 70.6977L105.142 67.4858L112.377 67.9554L110.851 70.9966L110.548 75.7804L118.104 76.2729L118.624 67.9425L115.299 64.5389L123.956 65.1034L122.544 87.4076Z" fill="white"/>
<path d="M109.028 120.155L110.115 116.048L101.764 95.0208L98.1621 92.7882L118.832 84.5293L122.03 92.5789L117.778 90.4568L110.064 93.5386L112.632 100.007L117.066 98.2356L119.47 95.8375L122.158 102.603L118.769 102.52L114.335 104.291L117.14 111.356L124.854 108.274L126.486 103.8L129.702 111.895L109.028 120.155ZM77.531 73.4108L75.7013 81.262L82.448 82.8577L83.5239 78.237L82.9513 74.8358L90.0097 76.5064L87.9922 79.2954L86.9163 83.9162L95.9864 86.0606L99.8692 84.3753L96.8347 97.3841L94.1021 94.135L72.1659 88.9479L68.2836 90.6332L73.2942 69.1433L81.6919 71.1281L77.531 73.4108ZM42.1611 79.9772L35.4334 85.2978L40.012 91.1329L43.9718 88.0001L45.7459 84.7805L50.5364 90.884L47.0062 91.8604L43.0464 94.9927L49.2028 102.839L53.5604 104.027L42.4063 112.849L42.2756 108.318L27.3912 89.3431L23.0332 88.1541L41.4463 73.5891L47.1464 80.8554L42.1611 79.9772Z" fill="white"/>
<path d="M60.0469 93.1932L59.1097 88.7584L41.112 72.808L36.5762 72.3918L46.19 61.4487L47.1966 65.8812L65.1943 81.8316L69.6607 82.2497L60.0469 93.1932Z" fill="white"/>
<path d="M76.8834 46.9968C77.1543 48.1467 77.2398 49.2447 77.1338 50.2974C77.0307 51.3491 76.766 52.3213 76.3402 53.2166C75.928 54.0882 75.3657 54.88 74.6792 55.5556C74.01 56.213 73.2373 56.7552 72.3923 57.1604L72.4721 57.497C72.9388 57.4869 73.4236 57.5847 73.923 57.7849C74.424 57.988 74.8987 58.2278 75.3521 58.5063C75.7685 58.7606 76.1641 59.0476 76.5355 59.3644C76.872 59.6562 77.112 59.8831 77.2512 60.0543L80.1008 64.0266C80.6236 64.6798 81.249 65.1189 81.9728 65.3511C82.6966 65.5828 83.5264 65.4703 84.4589 65.014C84.331 65.6171 84.091 66.1544 83.7327 66.6274C83.3712 67.1032 82.933 67.5151 82.4362 67.846C81.9225 68.1883 81.3761 68.4785 80.8051 68.7122C80.223 68.952 79.6793 69.1313 79.1717 69.251C77.6148 69.6214 76.2618 69.7153 75.1131 69.5323C73.9639 69.3497 72.9065 68.6493 71.9479 67.4278L67.7852 61.9451C67.3969 61.4321 66.8665 61.0359 66.1974 60.7556C65.5282 60.4753 64.89 60.4099 64.2874 60.5535L66.0078 67.8269L69.4638 70.7447L55.6031 74.0343L57.3863 69.8722L51.8325 46.3775L48.377 43.4593L61.3337 40.3837C63.2052 39.9384 65.005 39.7491 66.7316 39.8092C68.4563 39.874 70.0165 40.1849 71.4037 40.7479C72.7943 41.3095 73.9663 42.12 74.9206 43.1718C75.8773 44.2221 76.5317 45.496 76.8834 46.9968ZM68.0342 49.3501C67.7401 48.1057 67.3 47.1322 66.7168 46.4295C66.1304 45.7286 65.4826 45.2156 64.7716 44.8967C64.0578 44.5787 63.3269 44.4314 62.5812 44.4581C61.8322 44.4857 61.1697 44.6163 60.5871 44.8562L63.2356 56.0538C64.0445 56.0648 64.7911 55.9298 65.4788 55.6476C66.1537 55.3757 66.7502 54.9391 67.2144 54.3775C67.6835 53.8111 68.0057 53.1103 68.1792 52.2798C68.3427 51.4421 68.298 50.4657 68.0338 49.3501H68.0342Z" fill="white"/>
<path d="M101.634 52.5181C101.9 54.2364 101.77 55.7567 101.251 57.0817C100.728 58.4075 99.9649 59.5513 98.9583 60.5224C97.9499 61.4902 96.7836 62.2683 95.4548 62.8552C94.1265 63.4421 92.7991 63.8388 91.476 64.0433C90.3796 64.2121 89.3564 64.3136 88.4002 64.3436C87.5274 64.3744 86.6539 64.3854 85.7806 64.3765C84.9869 64.367 84.2484 64.3565 83.5721 64.3436C82.8925 64.3322 82.2947 64.3661 81.7819 64.4471C81.5552 64.4829 81.3175 64.6016 81.0699 64.8066C80.8228 65.0116 80.6175 65.2395 80.4583 65.4979L78.2617 51.259C78.7246 52.5233 79.3839 53.7063 80.215 54.7641C81.0581 55.8454 81.9867 56.7699 82.9952 57.5422C84.0065 58.3136 85.0369 58.9019 86.0886 59.3034C87.1403 59.7038 88.1345 59.834 89.0698 59.6895C89.6607 59.5992 90.2444 59.4673 90.8168 59.2948C91.3686 59.127 91.8562 58.9105 92.2768 58.6469C92.6974 58.3837 93.0196 58.0514 93.2378 57.6538C93.4559 57.2562 93.5243 56.7813 93.4397 56.2306C93.3067 55.3567 92.9564 54.5892 92.3899 53.9279C91.8244 53.2704 91.102 52.7103 90.2223 52.2468C89.3431 51.7868 88.3327 51.3953 87.195 51.074C85.9937 50.7392 84.7771 50.4625 83.5493 50.2449C81.6122 49.8826 79.908 49.0673 78.4404 47.7992C76.9742 46.5343 76.0523 44.6869 75.6778 42.2564C75.4672 40.8957 75.5837 39.6189 76.0285 38.4213C76.47 37.2251 77.1634 36.1391 78.103 35.166C79.0421 34.1925 80.196 33.3748 81.5628 32.7164C82.9291 32.0585 84.4357 31.6008 86.0805 31.3476C87.7914 31.0826 89.3726 31.023 90.8292 31.1593C92.2873 31.2985 93.5158 31.2928 94.5171 31.1364C94.7438 31.1002 94.9815 30.9815 95.2291 30.777C95.4767 30.572 95.6663 30.3431 95.7922 30.0942L97.5934 41.7581C97.179 40.7932 96.574 39.9169 95.7751 39.1303C94.981 38.3464 94.086 37.6726 93.1137 37.1269C92.1658 36.5925 91.1463 36.1975 90.0864 35.9541C89.0423 35.7181 88.0694 35.669 87.165 35.8082C86.003 35.9884 85.0159 36.3736 84.1961 36.9629C83.3782 37.5555 83.0327 38.2544 83.1587 39.064C83.2551 39.6809 83.66 40.1796 84.3796 40.5667C85.0986 40.9529 85.9859 41.3057 87.0443 41.6218C88.0994 41.9393 89.2623 42.2583 90.535 42.5729C91.7935 42.8878 93.0295 43.287 94.2348 43.7677C96.3131 44.6096 97.977 45.7019 99.225 47.0516C100.477 48.3922 101.279 50.2173 101.634 52.5181ZM41.3405 57.813C42.7482 61.3076 42.6256 64.4099 40.9707 67.1151C39.3159 69.8202 36.2952 72.0619 31.9087 73.8397L19.3355 78.9363L20.4732 74.5511L11.4558 52.162L7.60156 49.8006L19.4001 45.0187C20.5507 44.5515 21.8153 44.11 23.194 43.6933C24.5723 43.2762 25.9068 43.0259 27.1952 42.9472C28.4831 42.868 29.6413 43.0177 30.6749 43.3925C31.7062 43.7715 32.4495 44.5214 32.9024 45.6456C33.1319 46.2041 33.2305 46.8079 33.1904 47.4106C33.1515 48.007 33.0125 48.5926 32.7793 49.1427C32.5363 49.7122 32.2056 50.2399 31.7994 50.7064C31.3848 51.1895 30.9075 51.6146 30.3803 51.9703L30.4539 52.1529C31.0238 51.9932 31.8103 51.9384 32.8183 51.9923C33.8249 52.0428 34.8681 52.2759 35.9497 52.6869C37.0314 53.0983 38.0613 53.7129 39.0422 54.5377C40.0212 55.3482 40.7883 56.4418 41.3405 57.813ZM24.6355 49.8869C24.4639 49.4611 24.1992 49.136 23.8437 48.9071C23.4887 48.6783 23.0847 48.5329 22.6366 48.4685C22.1879 48.4046 21.7179 48.4352 21.2251 48.5639C20.7318 48.6931 20.2532 48.8871 19.7965 49.1431L21.688 53.8392C22.8029 53.4578 23.6531 52.9086 24.2434 52.1925C24.8351 51.4793 24.9667 50.7103 24.6355 49.8869ZM32.9376 61.588C32.6 60.7564 32.1217 59.9896 31.5237 59.3215C30.9267 58.6447 30.195 58.1009 29.3756 57.7253C28.5567 57.3491 27.64 57.1727 26.6291 57.1951C25.6183 57.2171 24.5395 57.5126 23.396 58.0805L28.6485 71.1217C29.8566 70.6321 30.8351 70.0233 31.5808 69.2957C32.3264 68.5692 32.8544 67.7811 33.161 66.9305C33.4694 66.0837 33.5998 65.182 33.544 64.2821C33.4924 63.3565 33.2874 62.446 32.9376 61.588Z" fill="white"/>
<path d="M120.281 36.6063L115.604 37.8759L121.408 59.331L124.967 62.1849L111.127 65.9466L112.808 61.6691L107.004 40.214L102.328 41.4831L99.7065 46.9835L97.0622 37.2042L122.669 30.243L125.313 40.0223L120.281 36.6063ZM29.2893 17.2251L46.6074 23.0621C48.3401 23.6452 49.725 24.4514 50.7601 25.4745C51.7952 26.4967 52.5456 27.6051 53.008 28.7999C53.4709 29.9946 53.6981 31.2032 53.6848 32.4232C53.6734 33.6466 53.5051 34.7393 53.1858 35.7033L52.3161 38.3146C51.7999 39.8688 51.1246 41.249 50.2901 42.4557C49.4593 43.6605 48.4556 44.6302 47.2827 45.3553C46.1112 46.0833 44.7624 46.5105 43.2407 46.6359C41.7185 46.7608 40.0271 46.511 38.1698 45.885L21.6045 40.2979L17.3125 41.7024L21.9562 27.7653L24.5387 31.4888L41.4837 37.2004C42.5986 37.5761 43.5553 37.7773 44.3566 37.8059C45.1583 37.8354 45.8327 37.7148 46.384 37.454C46.928 37.1995 47.3919 36.8001 47.7251 36.2993C48.0659 35.7925 48.3549 35.1837 48.5934 34.4685C48.8097 33.8178 48.9242 33.1899 48.9375 32.5882C48.9499 31.9966 48.8066 31.4122 48.5221 30.8938C48.2351 30.3651 47.777 29.8726 47.1539 29.4206C46.5308 28.9691 45.7058 28.5696 44.6855 28.2268L27.5499 22.4461L23.2607 23.8492L26.692 13.5488L29.2888 17.2251H29.2893ZM135.617 105.496C136.009 106.469 136.004 107.459 135.603 108.471C135.199 109.485 134.501 110.192 133.503 110.596C133.027 110.791 132.514 110.881 132 110.859C131.498 110.842 131.003 110.728 130.544 110.522C130.085 110.312 129.665 110.025 129.304 109.672C128.931 109.315 128.639 108.882 128.448 108.401C128.253 107.923 128.163 107.408 128.184 106.891C128.201 106.386 128.304 105.887 128.487 105.416C128.675 104.947 128.951 104.52 129.301 104.158C129.656 103.784 130.087 103.491 130.565 103.299C131.041 103.104 131.554 103.015 132.068 103.036C132.577 103.056 133.077 103.167 133.546 103.365C134.011 103.565 134.432 103.853 134.787 104.215C135.144 104.583 135.426 105.018 135.617 105.496H135.617Z" fill="white"/>
<path d="M81.6789 28.1313L79.4381 23.8119L59.815 34.0641L57.8037 38.1661L51.1716 25.3823L55.6941 26.1242L75.3172 15.8715L73.0764 11.5515L67.1662 10.1537L76.1094 5.48145L88.377 29.1287L79.4338 33.8004L81.6789 28.1313ZM128.303 54.446C128.3 56.1504 127.985 57.6236 127.362 58.867C126.74 60.1109 126.086 61.0763 125.398 61.7609C125.234 61.9245 125.036 62.0046 124.809 62.0036C124.646 62.0026 124.515 61.944 124.417 61.831C124.318 61.7142 124.301 61.5426 124.369 61.3137C124.467 61.0506 124.572 60.7321 124.688 60.3573C124.803 59.9793 124.861 59.646 124.861 59.3514C124.862 59.0234 124.798 58.7435 124.668 58.5132C124.538 58.2825 124.245 58.2 123.789 58.2625C122.776 58.3898 121.945 58.067 121.292 57.2951C120.641 56.5237 120.317 55.5631 120.321 54.4136C120.325 53.3647 120.701 52.456 121.453 51.6894C122.204 50.9223 123.151 50.539 124.295 50.5442C124.882 50.5452 125.423 50.6539 125.91 50.8703C126.384 51.0763 126.815 51.3689 127.181 51.7333C127.533 52.0877 127.815 52.5061 128.011 52.9662C128.206 53.431 128.303 53.9211 128.303 54.446ZM129.878 87.6365C130.655 89.5646 129.757 91.6909 127.797 92.4852C125.858 93.2714 123.699 92.3841 122.922 90.4556C122.162 88.5686 123.101 86.4256 125.039 85.6399C127.003 84.8437 129.118 85.7495 129.878 87.6361V87.6365ZM123.792 90.1028C124.402 91.618 126.002 92.3674 127.529 91.7481C129.015 91.146 129.624 89.5016 129.022 88.0056C128.413 86.4933 126.826 85.7128 125.319 86.324C123.811 86.9352 123.191 88.6101 123.792 90.1028ZM126.595 91.0387L125.811 91.3567L124.44 87.9545C124.724 87.7653 125.141 87.5512 125.699 87.3252C126.34 87.0654 126.669 87.0516 126.976 87.0978C127.22 87.1674 127.475 87.38 127.608 87.71C127.758 88.0818 127.586 88.4909 127.225 88.7827L127.242 88.8242C127.62 88.816 127.907 88.9862 128.194 89.4029C128.505 89.8806 128.653 90.0628 128.786 90.1543L127.941 90.4966C127.789 90.4132 127.6 90.1281 127.339 89.7758C127.125 89.4268 126.854 89.3457 126.421 89.5216L126.051 89.6713L126.601 91.0363L126.595 91.0387ZM125.837 89.1026L126.21 88.9514C126.644 88.7755 126.936 88.489 126.794 88.1371C126.669 87.8263 126.359 87.71 125.861 87.9111C125.715 87.9679 125.575 88.0408 125.445 88.1286L125.837 89.1026Z" fill="white"/>
</svg>
